# This file uses centimeters as units for non-parametric coordinates.

mtllib WoodT_LP.mtl
g default
v 0.344442 1.250116 -0.017404
v 0.344442 1.242117 -0.033104
v 0.344442 1.229660 -0.045564
v 0.344442 1.213956 -0.053563
v 0.344442 1.196554 -0.056319
v 0.344442 1.179152 -0.053563
v 0.344442 1.163447 -0.045564
v 0.344443 1.150990 -0.033104
v 0.344443 1.142991 -0.017404
v 0.344443 1.140235 -0.000000
v 0.344443 1.142991 0.017404
v 0.344443 1.150990 0.033104
v 0.344442 1.163447 0.045563
v 0.344442 1.179152 0.053563
v 0.344442 1.196554 0.056319
v 0.344442 1.213956 0.053563
v 0.344442 1.229660 0.045563
v 0.344442 1.242117 0.033104
v 0.344442 1.250116 0.017404
v 0.344442 1.252872 -0.000000
v -0.344443 1.250117 -0.017404
v -0.344443 1.242117 -0.033104
v -0.344442 1.229657 -0.045564
v -0.344442 1.213957 -0.053563
v -0.344442 1.196554 -0.056319
v -0.344442 1.179150 -0.053563
v -0.344442 1.163450 -0.045564
v -0.344442 1.150990 -0.033104
v -0.344442 1.142990 -0.017404
v -0.344442 1.140234 -0.000000
v -0.344442 1.142990 0.017404
v -0.344442 1.150990 0.033104
v -0.344442 1.163450 0.045563
v -0.344442 1.179150 0.053563
v -0.344442 1.196554 0.056319
v -0.344442 1.213957 0.053563
v -0.344442 1.229657 0.045563
v -0.344443 1.242117 0.033104
v -0.344443 1.250117 0.017404
v -0.344443 1.252873 -0.000000
v 0.344442 1.196554 -0.000000
v -0.344442 1.196554 -0.000000
vt 0.424479 0.282746
vt 0.408121 0.250640
vt 0.382642 0.225161
vt 0.350536 0.208802
vt 0.314947 0.203165
vt 0.279357 0.208802
vt 0.247252 0.225161
vt 0.221772 0.250640
vt 0.205414 0.282746
vt 0.199777 0.318335
vt 0.205414 0.353924
vt 0.221772 0.386030
vt 0.247252 0.411509
vt 0.279357 0.427868
vt 0.314947 0.433505
vt 0.350536 0.427868
vt 0.382642 0.411509
vt 0.408121 0.386030
vt 0.424479 0.353924
vt 0.430116 0.318335
vt 0.524170 0.171578
vt 0.546041 0.171578
vt 0.567912 0.171578
vt 0.589784 0.171578
vt 0.611655 0.171578
vt 0.633526 0.171578
vt 0.655397 0.171578
vt 0.677269 0.171578
vt 0.699140 0.171578
vt 0.721011 0.171578
vt 0.742882 0.171578
vt 0.764754 0.171578
vt 0.786625 0.171578
vt 0.808496 0.171578
vt 0.830368 0.171578
vt 0.852239 0.171578
vt 0.874110 0.171578
vt 0.895981 0.171578
vt 0.917853 0.171578
vt 0.939724 0.171578
vt 0.961595 0.171578
vt 0.524170 0.829362
vt 0.546041 0.829362
vt 0.567912 0.829362
vt 0.589784 0.829362
vt 0.611655 0.829362
vt 0.633526 0.829362
vt 0.655397 0.829362
vt 0.677269 0.829362
vt 0.699140 0.829362
vt 0.721011 0.829362
vt 0.742882 0.829362
vt 0.764754 0.829362
vt 0.786625 0.829362
vt 0.808496 0.829362
vt 0.830368 0.829362
vt 0.852239 0.829362
vt 0.874110 0.829362
vt 0.895981 0.829362
vt 0.917853 0.829362
vt 0.939724 0.829362
vt 0.961595 0.829362
vt 0.408287 0.576680
vt 0.391929 0.544575
vt 0.366450 0.519096
vt 0.334344 0.502737
vt 0.298754 0.497100
vt 0.263165 0.502737
vt 0.231059 0.519096
vt 0.205580 0.544575
vt 0.189222 0.576680
vt 0.183585 0.612270
vt 0.189222 0.647859
vt 0.205580 0.679965
vt 0.231059 0.705444
vt 0.263165 0.721803
vt 0.298754 0.727439
vt 0.334344 0.721803
vt 0.366449 0.705444
vt 0.391929 0.679965
vt 0.408287 0.647859
vt 0.413924 0.612270
vt 0.314947 0.313728
vt 0.298754 0.607663
vn 0.000001 0.951062 -0.309001
vn -0.000000 0.809035 -0.587760
vn -0.000000 0.809038 -0.587757
vn 0.000001 0.951062 -0.308999
vn -0.000001 0.587761 -0.809035
vn -0.000001 0.587762 -0.809034
vn -0.000000 0.308983 -0.951068
vn -0.000000 0.308982 -0.951068
vn 0.000000 0.000001 -1.000000
vn 0.000000 -0.000001 -1.000000
vn -0.000000 -0.308980 -0.951069
vn -0.000000 -0.308981 -0.951068
vn -0.000001 -0.587763 -0.809033
vn -0.000001 -0.587760 -0.809035
vn -0.000000 -0.809041 -0.587752
vn -0.000000 -0.809039 -0.587755
vn 0.000001 -0.951062 -0.308999
vn 0.000001 -0.951062 -0.309000
vn 0.000001 -1.000000 0.000000
vn 0.000001 -1.000000 0.000000
vn 0.000001 -0.951063 0.308997
vn 0.000001 -0.951063 0.308999
vn -0.000000 -0.809041 0.587753
vn -0.000000 -0.809038 0.587756
vn -0.000001 -0.587761 0.809034
vn -0.000001 -0.587759 0.809036
vn -0.000000 -0.308981 0.951068
vn -0.000000 -0.308982 0.951068
vn 0.000000 0.000001 1.000000
vn 0.000000 -0.000001 1.000000
vn -0.000000 0.308984 0.951067
vn -0.000000 0.308984 0.951067
vn -0.000001 0.587759 0.809036
vn -0.000001 0.587761 0.809035
vn -0.000000 0.809034 0.587762
vn -0.000000 0.809036 0.587759
vn 0.000001 0.951063 0.308999
vn 0.000001 0.951063 0.308997
vn 0.000001 1.000000 0.000000
vn 0.000001 1.000000 0.000000
vn 1.000000 0.000007 0.000007
vn 1.000000 0.000013 0.000011
vn 1.000000 0.000007 -0.000000
vn 1.000000 -0.000004 -0.000008
vn 1.000000 0.000008 -0.000003
vn 1.000000 -0.000006 0.000000
vn 1.000000 -0.000017 -0.000005
vn 1.000000 0.000022 -0.000027
vn 1.000000 0.000029 -0.000020
vn 1.000000 0.000011 0.000002
vn 1.000000 0.000012 0.000000
vn 1.000000 0.000011 -0.000003
vn 1.000000 0.000029 0.000019
vn 1.000000 0.000023 0.000027
vn 1.000000 -0.000017 0.000004
vn 1.000000 -0.000006 0.000000
vn 1.000000 0.000008 0.000003
vn 1.000000 -0.000005 0.000008
vn 1.000000 0.000006 -0.000007
vn 1.000000 0.000013 -0.000011
vn 1.000000 0.000009 0.000000
vn -1.000000 -0.000011 0.000003
vn -1.000000 -0.000029 -0.000019
vn -1.000000 -0.000007 0.000000
vn -1.000000 -0.000022 -0.000028
vn -1.000000 0.000017 -0.000005
vn -1.000000 0.000006 0.000000
vn -1.000000 -0.000008 -0.000003
vn -1.000000 0.000004 -0.000008
vn -1.000000 -0.000007 0.000007
vn -1.000000 -0.000013 0.000011
vn -1.000000 -0.000009 0.000000
vn -1.000000 -0.000013 -0.000011
vn -1.000000 -0.000006 -0.000007
vn -1.000000 0.000005 0.000008
vn -1.000000 -0.000008 0.000003
vn -1.000000 0.000006 0.000000
vn -1.000000 0.000017 0.000005
vn -1.000000 -0.000021 0.000027
vn -1.000000 -0.000028 0.000020
vn -1.000000 -0.000011 -0.000002
vn -1.000000 -0.000012 -0.000000
s 1
g pCylinder1
usemtl initialShadingGroup
f 1/21/1 2/22/2 22/43/3 21/42/4
f 2/22/2 3/23/5 23/44/6 22/43/3
f 3/23/5 4/24/7 24/45/8 23/44/6
f 4/24/7 5/25/9 25/46/10 24/45/8
f 5/25/9 6/26/11 26/47/12 25/46/10
f 6/26/11 7/27/13 27/48/14 26/47/12
f 7/27/13 8/28/15 28/49/16 27/48/14
f 8/28/15 9/29/17 29/50/18 28/49/16
f 9/29/17 10/30/19 30/51/20 29/50/18
f 10/30/19 11/31/21 31/52/22 30/51/20
f 11/31/21 12/32/23 32/53/24 31/52/22
f 12/32/23 13/33/25 33/54/26 32/53/24
f 13/33/25 14/34/27 34/55/28 33/54/26
f 14/34/27 15/35/29 35/56/30 34/55/28
f 15/35/29 16/36/31 36/57/32 35/56/30
f 16/36/31 17/37/33 37/58/34 36/57/32
f 17/37/33 18/38/35 38/59/36 37/58/34
f 18/38/35 19/39/37 39/60/38 38/59/36
f 19/39/37 20/40/39 40/61/40 39/60/38
f 20/40/39 1/41/1 21/62/4 40/61/40
s 2
f 2/2/41 1/1/42 41/83/43
f 3/3/44 2/2/41 41/83/43
f 4/4/45 3/3/44 41/83/43
f 5/5/46 4/4/45 41/83/43
f 6/6/47 5/5/46 41/83/43
f 7/7/48 6/6/47 41/83/43
f 8/8/49 7/7/48 41/83/43
f 9/9/50 8/8/49 41/83/43
f 10/10/51 9/9/50 41/83/43
f 11/11/52 10/10/51 41/83/43
f 12/12/53 11/11/52 41/83/43
f 13/13/54 12/12/53 41/83/43
f 14/14/55 13/13/54 41/83/43
f 15/15/56 14/14/55 41/83/43
f 16/16/57 15/15/56 41/83/43
f 17/17/58 16/16/57 41/83/43
f 18/18/59 17/17/58 41/83/43
f 19/19/60 18/18/59 41/83/43
f 20/20/61 19/19/60 41/83/43
f 1/1/42 20/20/61 41/83/43
s 3
f 21/81/62 22/80/63 42/84/64
f 22/80/63 23/79/65 42/84/64
f 23/79/65 24/78/66 42/84/64
f 24/78/66 25/77/67 42/84/64
f 25/77/67 26/76/68 42/84/64
f 26/76/68 27/75/69 42/84/64
f 27/75/69 28/74/70 42/84/64
f 28/74/70 29/73/71 42/84/64
f 29/73/71 30/72/72 42/84/64
f 30/72/72 31/71/73 42/84/64
f 31/71/73 32/70/74 42/84/64
f 32/70/74 33/69/75 42/84/64
f 33/69/75 34/68/76 42/84/64
f 34/68/76 35/67/77 42/84/64
f 35/67/77 36/66/78 42/84/64
f 36/66/78 37/65/79 42/84/64
f 37/65/79 38/64/80 42/84/64
f 38/64/80 39/63/81 42/84/64
f 39/63/81 40/82/82 42/84/64
f 40/82/82 21/81/62 42/84/64
